<?xml version="1.0" encoding="UTF-8"?>
<!DOCTYPE svg PUBLIC "-//W3C//DTD SVG 1.1//EN" "http://www.w3.org/Graphics/SVG/1.1/DTD/svg11.dtd">
<!-- Creator: CorelDRAW -->
<svg xmlns="http://www.w3.org/2000/svg" xml:space="preserve" width="2.66666in" height="2.66666in" version="1.1" style="shape-rendering:geometricPrecision; text-rendering:geometricPrecision; image-rendering:optimizeQuality; fill-rule:evenodd; clip-rule:evenodd"
viewBox="0 0 2666.66 2666.66"
 xmlns:xlink="http://www.w3.org/1999/xlink"
 xmlns:xodm="http://www.corel.com/coreldraw/odm/2003">
 <defs>
  <style type="text/css">
   <![CDATA[
    .fil1 {fill:#FEFEFE}
    .fil0 {fill:#003C69}
   ]]>
  </style>
 </defs>
 <g id="Layer_x0020_1">
  <metadata id="CorelCorpID_0Corel-Layer"/>
  <circle class="fil0" cx="1333.33" cy="1333.33" r="1333.33"/>
  <path class="fil1" d="M1878.5 2186.65l-1090.36 0c-37.17,0 -67.4,-30.25 -67.4,-67.42l0 -1468.11c0,-37.16 30.24,-67.41 67.4,-67.41l169.63 -0.29 0 124c0,29.44 23.89,53.33 53.33,53.33l644.43 0c29.44,0 53.33,-23.89 53.33,-53.33l0 -123.83 169.64 0.12c37.17,0 67.42,30.24 67.42,67.41l0 1468.11c-0.02,37.18 -30.25,67.42 -67.42,67.42zm-793.32 -1091.4l-188.89 0c-11.04,0 -20,-8.96 -20,-20l0 -188.88c0,-11.04 8.96,-20 20,-20l188.89 0c11.04,0 20,8.96 20,20l0 188.88c0,11.04 -8.96,20 -20,20zm-168.89 -40l148.89 0 0 -148.89 -148.89 0 0 148.89zm854.06 -123.89l-548.15 0c-26.33,0 -26.33,-40 0,-40l548.15 0c26.32,0 26.33,40 0,40zm0 138.87l-548.15 0c-26.33,0 -26.33,-40 0,-40l548.15 0c26.32,0 26.33,40 0,40zm-685.17 329.17l-188.89 0c-11.04,0 -20,-8.97 -20,-20l0 -188.88c0,-11.04 8.96,-20 20,-20l188.89 0c11.04,0 20,8.96 20,20l0 188.88c0,11.03 -8.96,20 -20,20zm-168.89 -40.02l148.89 0 0 -148.88 -148.89 0 0 148.88zm854.06 -123.87l-548.15 0c-26.33,0 -26.33,-40 0,-40l548.15 0c26.32,0 26.33,40 0,40zm0 138.87l-548.15 0c-26.32,0 -26.32,-40 0,-40l548.15 0c26.32,0 26.33,40 0,40zm-685.17 329.14l-188.89 0c-11.04,0 -20,-8.97 -20,-20l0 -188.88c0,-11.04 8.96,-20 20,-20l188.89 0c11.04,0 20,8.97 20,20l0 188.88c0,11.05 -8.96,20 -20,20zm-168.89 -40.01l148.89 0 0 -148.86 -148.89 0 0 148.86zm854.06 -123.86l-548.15 0c-26.32,0 -26.32,-40 0,-40l548.15 0c26.32,0 26.33,40 0,40zm0 138.87l-548.15 0c-26.32,0 -26.32,-40 0,-40l548.15 0c26.32,0 26.33,40 0,40zm-685.17 329.16l-188.89 0c-11.04,0 -20,-8.97 -20,-20l0 -188.88c0,-11.04 8.96,-20 20,-20l188.89 0c11.04,0 20,8.97 20,20l0 188.88c0,11.03 -8.96,20 -20,20zm-168.89 -40.01l148.89 0 0 -148.87 -148.89 0 0 148.87zm854.06 -123.86l-548.15 0c-26.32,0 -26.32,-40 0,-40l548.15 0c26.32,0 26.33,40 0,40zm0 138.87l-548.15 0c-26.32,0 -26.32,-40 0,-40l548.15 0c26.32,0 26.33,40 0,40zm-796.73 -959.97c-14.05,0 -23.5,-17.29 -35.93,-32.76 -16.42,-20.44 14.76,-45.5 31.18,-25.04l7.79 9.7c25.48,-20.46 50.14,-49.37 67.11,-28.26 6.92,8.61 5.54,21.19 -3.07,28.11 -16.62,13.35 -54.24,48.26 -67.08,48.26zm-0.02 304.15c-14.11,0 -23.4,-17.18 -35.92,-32.76 -16.43,-20.45 14.77,-45.48 31.18,-25.04l7.79 9.69c25.38,-20.4 50.13,-49.39 67.11,-28.29 6.92,8.61 5.54,21.2 -3.06,28.13 -16.58,13.34 -54.24,48.27 -67.11,48.27zm0 304.18c-14.11,0 -23.42,-17.2 -35.92,-32.77 -16.43,-20.44 14.77,-45.49 31.18,-25.06l7.79 9.71c25.44,-20.45 50.13,-49.4 67.09,-28.3 6.93,8.61 5.56,21.2 -3.06,28.11 -16.59,13.33 -54.28,48.3 -67.09,48.3zm0.02 304.13c-14.03,0 -23.49,-17.3 -35.92,-32.74 -16.44,-20.44 14.73,-45.48 31.17,-25.06l7.81 9.7c25.47,-20.47 50.14,-49.37 67.11,-28.28 6.92,8.61 5.54,21.2 -3.07,28.11 -16.58,13.32 -54.27,48.27 -67.09,48.27z"/>
  <path class="fil1" d="M1655.53 727.43l-644.43 0c-11.04,0 -20,-8.96 -20,-20l0 -207.41c0,-11.04 8.96,-20 20,-20l644.43 0c11.04,0 20,8.96 20,20l0 207.41c0.02,11.04 -8.95,20 -20,20z"/>
 </g>
</svg>
