<?xml version="1.0" encoding="utf-8"?>
<!-- Generator: Adobe Illustrator 24.3.0, SVG Export Plug-In . SVG Version: 6.00 Build 0)  -->
<svg version="1.1" id="Layer_2" xmlns="http://www.w3.org/2000/svg" xmlns:xlink="http://www.w3.org/1999/xlink" x="0px" y="0px"
	 viewBox="0 0 64 64" enable-background="new 0 0 64 64" xml:space="preserve">
<path d="M36,49c0,6.1,4.9,11,11,11s11-4.9,11-11s-4.9-11-11-11S36,42.9,36,49z M41.8,47c0.3,0,0.5,0,0.8,0.2l3.1,2.3l4.4-7.1
	c0.1-0.2,0.4-0.4,0.6-0.4c0.3-0.1,0.5,0,0.8,0.1l3,2c0.5,0.3,0.6,0.9,0.3,1.4l-7,11c-0.1,0.2-0.4,0.4-0.7,0.4c-0.1,0-0.1,0-0.2,0
	c-0.2,0-0.4-0.1-0.6-0.2l-7-5c-0.4-0.3-0.6-0.9-0.3-1.4l2-3C41.3,47.2,41.6,47,41.8,47z"/>
<path d="M34,49c0-6.1,4.3-11.3,10-12.6V4H6v56h34.1C36.4,57.7,34,53.6,34,49z M39,31H21v-2h18V31z M31,24v2H21v-2H31z M23,21v-2h11
	v2H23z M39,26h-6v-2h6V26z M39,21h-3v-2h3V21z M15,7h20v2H15V7z M11,14h28v2H11V14z M11,19h10v2H11V19z M11,24h7v2h-7V24z M11,29h8
	v2h-8V29z M11,34h28v2H11V34z M17,51h-6v-2h6V51z M32,51H19v-2h13V51z M32,46H11v-2h21V46z M32,41H11v-2h21V41z"/>
<path d="M52.6,45.3l-1.3-0.9l-4.5,7.1c-0.1,0.2-0.4,0.4-0.7,0.5c-0.3,0.1-0.6,0-0.8-0.2l-3.2-2.4l-0.9,1.3l5.4,3.8L52.6,45.3z"/>
</svg>
