<?xml version="1.0" encoding="utf-8"?>
<!-- Generator: Adobe Illustrator 26.0.2, SVG Export Plug-In . SVG Version: 6.00 Build 0)  -->
<svg version="1.1" id="Layer_3" xmlns="http://www.w3.org/2000/svg" xmlns:xlink="http://www.w3.org/1999/xlink" x="0px" y="0px"
	 viewBox="0 0 64 64" style="enable-background:new 0 0 64 64;" xml:space="preserve">
<g>
	<rect x="50.229" y="43" width="2" height="2"/>
	<path d="M30.128,13H14V9h12.128L30.128,13z M10,61V3h20.357l-4.001,4H13c-0.553,0-1,0.448-1,1v6c0,0.552,0.447,1,1,1h17.128l-4,4
		H18v2h8.128l4,4H12v2h18.128c-1.414,1.414-3.293,3.293-4,4H12v2h14.128c0.707,0.707,2.586,2.586,4,4H12v2h18.128l-4,4H12v2h14.128
		l5,5l-5.293,5.293c-0.391,0.391-0.391,1.023,0,1.414L30.128,61H10z"/>
	<path d="M34.414,9h15.814v4H38.414L34.414,9z M33.414,56l5.293-5.293c0.391-0.391,0.391-1.023,0-1.414L34.414,45h13.814v-2H34.414
		l4-4h13.814v-2H38.414l-2.707-2.707c-0.501-0.502-0.926-0.927-1.295-1.293h17.816v-2H34.412c0.369-0.366,0.794-0.791,1.295-1.293
		L38.414,27h13.814v-2H38.414l-4-4h11.814v-2H34.414l4-4h12.814c0.553,0,1-0.448,1-1V8c0-0.552-0.447-1-1-1H34.643l4-4h15.586v50h-7
		c-0.553,0-1,0.448-1,1v7h-7.814L33.414,56z M52.814,55l-4.586,4.586V55H52.814z"/>
</g>
</svg>
